<svg width="362" height="756" viewBox="0 0 362 756" fill="none" xmlns="http://www.w3.org/2000/svg">
<path fill-rule="evenodd" clip-rule="evenodd" d="M330.369 7.03256H31.6311C18.0438 7.03256 7.02913 18.0526 7.02913 31.6465V724.353C7.02913 737.947 18.0438 748.967 31.6311 748.967H330.369C343.956 748.967 354.971 737.947 354.971 724.353V31.6465C354.971 18.0526 343.956 7.03256 330.369 7.03256ZM31.6311 0C14.1617 0 0 14.1686 0 31.6465V724.353C0 741.831 14.1617 756 31.6311 756H330.369C347.838 756 362 741.831 362 724.353V31.6465C362 14.1686 347.838 0 330.369 0H31.6311Z" fill="black"/>
</svg>
